<?xml version="1.0" encoding="UTF-8"?>
<svg width="335px" height="279px" viewBox="0 0 335 279" version="1.1" xmlns="http://www.w3.org/2000/svg" xmlns:xlink="http://www.w3.org/1999/xlink">
    <!-- Generator: Sketch 52.6 (67491) - http://www.bohemiancoding.com/sketch -->
    <title>404_logo</title>
    <desc>Created with Sketch.</desc>
    <g id="main_page-copy" stroke="none" stroke-width="1" fill="none" fill-rule="evenodd">
        <g id="main_page_adaptive" transform="translate(-20.000000, -3782.000000)">
            <g id="404_logo" transform="translate(20.000000, 3782.000000)">
                <polygon id="Fill-1" fill="#3FC68D" points="170.601852 0 170.601852 147.25 188.777715 128.830374 188.777715 18.4176066 279.601914 18.4176066 279.138106 149.763575 297.702073 149.763575 297.777778 0 297.702073 0"></polygon>
                <g id="Group-6">
                    <polyline id="Fill-2" fill="#3FC68D" points="130.083966 187.647495 130.083966 168.884322 334.555598 168.884322 334.682667 187.647495 130.083966 187.647495"></polyline>
                    <polyline id="Fill-4" fill="#37517E" points="334.66432 0.191957629 334.66432 0.161107296 185.999746 150.169824 297.42428 150.146515 278.842992 131.405966 230.877515 131.405966 316.133996 45.3979793 316.133996 168.922028 334.682667 187.642696 334.682667 0.167962925 334.66432 0.191957629"></polyline>
                    <polygon id="Fill-5" fill="#37517E" points="148.694473 0.161107296 0 150.169824 111.523742 150.146515 111.523742 131.405966 44.891359 131.405966 130.096197 45.3979793 130.096197 187.642696 148.694473 168.969332 148.694473 0.167962925 148.694473 0.191957629"></polygon>
                </g>
                <path d="M53.765895,237.999964 L81.4236111,237.999964 L81.4236111,277.047332 L68.875938,277.047332 L68.875938,269.346695 L68.5345293,269.346695 C66.7913959,272.665165 64.5220745,275.106667 61.7337829,276.650529 C58.9332208,278.230403 55.3516772,279 51.0173021,279 C40.3997072,279 32.5797871,275.800238 27.6304432,269.400047 C22.6493404,263.007192 20.162037,253.468593 20.162037,240.812927 C20.162037,229.056903 22.8875325,219.802402 28.3659517,213.110777 C33.8219952,206.442495 42.1031418,203.05 53.20073,203.05 C61.5280715,203.05 67.9700861,205.078694 72.512338,209.10674 C77.092845,213.159461 79.8731968,219.59433 80.8967012,228.39601 L63.8847301,228.39601 C63.7317097,224.520683 62.6851079,221.66704 60.7600823,219.802402 C58.8458837,217.98778 56.247424,217.050126 53.0657545,217.050126 C47.6999353,217.050126 43.7423368,219.128171 41.2701912,223.359619 C38.7561814,227.545719 37.4937631,233.541772 37.4937631,241.348444 C37.4937631,249.805339 38.7229789,255.900759 41.2203873,259.601359 C43.7076907,263.290622 47.5173213,265.108578 52.6738202,265.013212 C57.1013067,265.013212 60.4338313,263.777456 62.6547925,261.303942 C64.8656486,258.825094 66.0580529,255.392585 66.2110733,251.043096 L53.765895,251.043096 L53.765895,237.999964" id="Fill-7" fill="#37517E"></path>
                <path d="M106.396471,217.80041 L106.396471,237.117145 L117.532403,237.117145 C120.452489,237.203063 122.557282,236.416421 123.90639,234.828349 C125.232979,233.241685 125.942303,230.824012 126.025091,227.557724 C126.025091,224.102698 125.375374,221.620235 124.058057,220.069488 C122.743389,218.549023 120.406128,217.80041 117.017133,217.80041 L106.396471,217.80041 Z M91.5046296,279 L91.5046296,203.05 L121.428721,203.05 C128.131871,203.05 133.170658,204.95287 136.518591,208.797343 C139.844005,212.645337 141.534197,217.920132 141.628244,224.631586 C141.628244,229.536652 140.594392,233.821278 138.529337,237.425604 C136.518591,241.051761 133.826336,243.035619 130.598281,243.415207 L130.598281,244.063817 C136.180155,244.634255 138.892278,249.499884 138.715444,258.600841 C138.529337,267.722222 139.597629,274.506917 141.909722,279 L127.022517,279 C126.692691,278.483788 126.411875,278.033072 126.235041,277.582355 C126.09397,277.16685 125.562143,271.270208 124.774666,259.891018 C124.527628,256.997275 123.720283,254.820454 122.451314,253.321821 C121.147905,251.852766 119.026555,251.113309 116.091236,251.113309 L106.396471,251.113309 L106.396471,279 L91.5046296,279 Z" id="Fill-8" fill="#37517E"></path>
                <path d="M177.967705,265.013212 C182.910593,265.013212 186.461726,263.007192 188.577917,258.966475 C190.714309,254.954435 191.80166,248.951714 191.849724,241.030335 C191.80166,232.959572 190.653707,226.96352 188.478307,222.995495 C186.275044,219.026136 182.810983,217.050126 177.967705,217.050126 C173.026907,217.050126 169.468808,219.026136 167.291319,222.995495 C165.116616,226.96352 164.03205,232.959572 164.03205,241.030335 C164.03205,248.951714 165.116616,254.954435 167.192405,258.966475 C169.328797,263.007192 172.927297,265.013212 177.967705,265.013212 Z M177.967705,279 C167.885496,279 160.275428,275.612174 155.053911,268.841856 C149.906927,262.07554 147.337963,252.8057 147.337963,241.030335 C147.337963,229.342334 149.906927,220.074495 155.053911,213.264163 C160.275428,206.4585 167.885496,203.05 177.967705,203.05 C187.945428,203.13803 195.55062,206.54653 200.788855,213.347525 C205.979026,220.078496 208.599537,229.342334 208.599537,241.030335 C208.500624,252.8057 205.930963,262.07554 200.689245,268.841856 C195.55062,275.612174 187.945428,279 177.967705,279 Z" id="Fill-9" fill="#37517E"></path>
                <path d="M218.680556,203.05 L233.589741,203.05 L233.589741,246.061639 C233.561793,253.160655 234.29777,258.04097 235.857561,260.675162 C237.460607,263.316209 240.106396,264.620278 243.882769,264.620278 C247.563984,264.620278 250.199127,263.316209 251.756257,260.675162 C253.320706,258.04097 254.121231,253.160655 254.121231,246.061639 L254.121231,203.05 L269.085648,203.05 L269.085648,248.951571 C269.085648,259.473252 267.105298,267.137226 263.135283,271.883844 C259.178576,276.618121 252.753751,279 243.882769,279 C234.913302,279 228.489808,276.618121 224.531105,271.883844 C220.610332,267.137226 218.680556,259.473252 218.680556,248.951571 L218.680556,203.05" id="Fill-10" fill="#37517E"></path>
                <path d="M299.726265,217.80041 L299.726265,238.101679 L309.709931,238.101679 C312.799488,238.101679 315.107399,237.29391 316.603367,235.63823 C318.069038,234.019876 318.820388,231.343041 318.820388,227.658431 C318.820388,224.516794 318.16464,222.056162 316.858529,220.334284 C315.538281,218.63987 313.164391,217.80041 309.709931,217.80041 L299.726265,217.80041 Z M284.594907,203.05 L312.401596,203.05 C320.00262,203.135918 325.667369,205.250765 329.412675,209.448065 C333.137109,213.644661 335,219.668068 335,227.557724 C335,236.112892 333.071804,242.435603 329.20464,246.610367 C325.318624,250.780201 319.620886,252.851385 312.099305,252.851385 L299.726265,252.851385 L299.726265,279 L284.594907,279 L284.594907,203.05 Z" id="Fill-11" fill="#37517E"></path>
            </g>
        </g>
    </g>
</svg>